<?xml version="1.0" encoding="utf-8" ?>
<svg baseProfile="full" height="300mm" version="1.1" viewBox="0,0,200,300" width="200mm" xmlns="http://www.w3.org/2000/svg" xmlns:ev="http://www.w3.org/2001/xml-events" xmlns:xlink="http://www.w3.org/1999/xlink"><defs /><rect fill="#222222" height="300" width="200" x="0" y="0" /><text fill="#FFFFFF" style="font-size:12px; font-family:Arial; font-weight:bold;" x="10" y="20">MY TRACKS</text><text fill="#FFFFFF" style="font-size:4px; font-family:Arial" x="10" y="280">ATHLETE</text><text fill="#FFFFFF" style="font-size:9px; font-family:Arial" x="10" y="290">John Doe</text><text fill="#FFFFFF" style="font-size:4px; font-family:Arial" x="120" y="280">STATISTICS</text><text fill="#FFFFFF" style="font-size:3px; font-family:Arial" x="120" y="285">Number: 19</text><text fill="#FFFFFF" style="font-size:3px; font-family:Arial" x="120" y="290">Weekly: 1.4</text><text fill="#FFFFFF" style="font-size:3px; font-family:Arial" x="141" y="285">Total: 79.3 km</text><text fill="#FFFFFF" style="font-size:3px; font-family:Arial" x="141" y="290">Avg: 4.2 km</text><text fill="#FFFFFF" style="font-size:3px; font-family:Arial" x="167" y="285">Min: 1.6 km</text><text fill="#FFFFFF" style="font-size:3px; font-family:Arial" x="167" y="290">Max: 8.4 km</text><polyline fill="none" points="23.16474775969982,59.169241330819204 29.803149352781475,69.35481786774471 40.383101891726255,64.01952151022851 42.0427022902295,44.13330762600526 37.89370129443705,35.40272026555613 31.255299701355398,32.977551215095446 23.994547958485782,37.10033707646653 23.78709790762514,54.80398040404543 27.93609890434891,65.95963071193546 39.13840159308165,65.23208995303139 38.930951544083655,35.40272026555613 30.218049451708794,32.25 23.78709790762514,36.615303829545155 22.9572977097705,60.381812336388975 28.14354895427823,72.75 25.654148356057703,72.50748715735972 30.010599402710795,67.17219812981784 36.44155094586313,66.20214424654841 38.930951544083655,62.079410668229684 40.590551941655576,40.73808315512724 31.255299701355398,32.49251709738746 23.16474775969982,38.07040326111019 24.201998008415103,63.291980136884376 30.010599402710795,67.89973827288486 39.76075174193829,63.53449395345524 40.7980019915849,40.73808315512724 39.13840159308165,36.37278716801666 31.670199800282717,33.70510219922289 23.78709790762514,38.07040326111019 23.78709790762514,62.80695242644288 30.218049451708794,66.44465775601566" stroke="#4dd2ff" stroke-linecap="round" stroke-linejoin="round" stroke-width="0.5"><title>2020-01-01 1.7km</title></polyline><polyline fill="none" points="59.39569536456838,50.87995549081825 57.607615894638,55.89693228993565 60.468543047085404,59.34608907427173 93.8162251659669,56.00145236909157 97.75,52.5522839188925 97.75,49.20762423530687 92.29635761631653,45.75843208783772 88.98841059627011,45.65391092572827 72.80629139114171,50.7754348704475 60.28973509930074,51.402558428642806 57.25,55.16529142513173 60.1109271524474,59.34608907427173 81.21026490069926,58.09185163548682 94.71026490069926,55.478851862077136 97.03476821165532,53.49296741664875 96.76655629137531,48.3714575463091 92.02814569557086,45.9674743784708 85.8592715235427,46.594600985816214 73.25331125874072,50.7754348704475 62.971854304894805,50.87995549081825 60.915562914218754,49.31214502162766 59.30629139114171,50.461872942047194 61.451986755244434,53.17940634995466" stroke="#4dd2ff" stroke-linecap="round" stroke-linejoin="round" stroke-width="0.5"><title>2020-07-04 2.0km</title></polyline><polyline fill="none" points="105.39224137924612,51.377553836093284 102.94827586226165,55.153126019926276 106.17780172405764,58.928683438804 130.96659482782707,57.19396970135858 140.30603448301554,55.153126019926276 142.66271551698446,51.785724513814785 142.31357758678496,49.64282653067494 139.17133620707318,46.88766499183839 135.15625,45.8672327970271 118.3103448273614,50.76529749581823 104.69396551745012,51.88776715641143 102.77370689669624,55.459252847067546 106.00323275895789,59.03072532627266 138.9094827589579,55.56129510141909 142.13900862075388,53.31636301823892 142.31357758678496,49.4387407603208 139.0840517245233,46.78562182094902 133.06142241414636,46.07131932221819 119.00862068962306,50.867340246390086 107.05064655188471,51.377553836093284 103.55926724104211,53.41840549890185 103.03556034527719,55.35721058247145 106.26508620707318,59.13276720291469 138.82219827594236,55.56129510141909 142.75,51.27551113982918 141.70258620707318,48.316268252558075 137.33836206933483,46.07131932221819 131.3157327589579,46.47949224349577 117.4375,51.173468432505615 107.13793103443459,51.27551113982918 102.25,52.704107907717116 106.00323275895789,50.96938298578607" stroke="#4dd2ff" stroke-linecap="round" stroke-linejoin="round" stroke-width="0.5"><title>2020-07-05 3.0km</title></polyline><polyline fill="none" points="149.75331125827506,51.14125830755802 147.25,55.53111254225951 151.00496688717976,59.29382923338562 184.6208609272726,55.740152734389994 187.66059602657333,52.918106416938826 187.57119205314666,48.94632388220634 183.4586092713289,46.01973706955323 180.06125827878714,45.70617368310923 164.5943708610721,50.51413468335522 149.93211920559406,51.454819970414974 147.607615894638,56.05371293926146 150.37913907319307,59.39834893704392 160.92880794778466,57.83055222168332 169.3327814573422,58.353151402727235 185.8725165561773,54.79947152337991 187.57119205314666,53.23166751646204 187.75,49.887010661070235 183.8162251659669,46.12425817648182 175.8592715235427,45.81069482292514 161.7334437086247,51.14125830755802 149.66390728531405,51.24577887309715 147.51821192074567,55.217552171845455 148.14403973566368,57.203432839305606 151.8096026489511,59.18930951872608 159.2301324508153,58.248631588649005 160.75,59.502868629817385 183.90562913939357,55.84467281354591 186.85596026526764,54.27687046374194 187.66059602657333,49.155365466082 185.42549668904394,46.855905614153016 179.88245033100247,45.497131370182615 175.05463576177135,46.01973706955323 171.38907284801826,48.4237197295879 162.6274834438227,50.82769654516596 150.4685430470854,51.35029942728579 147.69701986806467,55.635632643825375 149.21688741771504,57.51699258008739 153.24006622564048,57.412472677533515" stroke="#4dd2ff" stroke-linecap="round" stroke-linejoin="round" stroke-width="0.5"><title>2020-07-07 3.1km</title></polyline><polyline fill="none" points="32.74125481327064,84.5726087790681 32.09790864470415,85.96403617569013 33.35243367345538,87.43066997348797 45.47950895165559,86.26488462710404 46.54103012988344,84.76063982630149 46.15502242883667,83.59484573145164 44.836162783089094,82.80511207738891 42.68095311825164,82.99314405873884 37.7593549285084,84.5726087790681 34.31745292642154,84.5726087790681 33.41676829033531,83.97090876003494 36.183156815357506,82.8803248819022 44.90049739985261,81.03760659514228 47.18437629833352,81.0 48.24589747667778,82.05298315823893 50.14376867399551,111.30962619322236 49.371753271785565,112.28731308790157 50.33677252463531,114.73151857315679 50.7227802259149,121.5 50.111601365730166,114.24267881907872 49.08224749600049,112.58813928422751 32.41958172887098,117.10050171538023 31.29372593399603,114.69391553892638 30.13570283050649,107.66207830549683 30.360873989528045,105.18022022407968 29.36368742818013,102.81115772636258 28.752508567995392,98.44903313933173 27.208477763226256,96.86963001667755 24.98893348162528,96.34316075127572 15.435242877923883,98.03538061821018 14.277219774201512,87.88194069493329 20.549844918306917,86.00164224606124" stroke="#4dd2ff" stroke-linecap="round" stroke-linejoin="round" stroke-width="0.5"><title>2020-07-19 4.9km</title></polyline><polyline fill="none" points="79.16636851523072,83.84480268493644 93.47540250443853,81.04965493248892 94.67084078700282,81.00730405907962 95.50402504461817,81.93902224168414 97.75,114.80187773620128 97.27906976733357,115.98760049862904 96.4821109122131,116.32637778634671 80.18067978532054,121.32330951627227 77.53622540249489,121.49269594092038 76.63059033988975,118.74015767217497 74.6744186046999,104.04551812759019 72.89937388175167,99.38716256158659 70.32737030414864,98.07434348444804 58.66279069753364,100.06474491854897 57.25,89.30798971807235 57.902057245140895,88.20688824763056 78.55053667235188,84.05655550808297" stroke="#4dd2ff" stroke-linecap="round" stroke-linejoin="round" stroke-width="0.5"><title>2020-07-21 3.7km</title></polyline><polyline fill="none" points="103.39456521673128,101.09562994824955 102.95434782560915,104.59524022846017 105.68369565159082,107.06554579519434 123.11630434729159,107.47726278024493 134.91413043485954,105.83039379486581 140.10869565233588,103.77180364663946 142.75,99.55168023821898 141.51739130401984,96.87549494206905 138.1717391302809,94.71395529573783 131.83260869560763,94.30223291442962 120.56304347841069,99.34582009183941 108.7652173913084,99.757540341001 103.0423913039267,101.50734945747536 102.69021739112213,104.69816975179128 106.29999999934807,108.09483793191612 124.965217391029,107.37433355033863 140.37282608728856,103.77180364663946 142.57391304336488,101.40441959636519 142.39782608719543,98.11065830051666 139.31630434794351,95.12567750312155 130.8641304350458,95.22860802750802 118.4499999997206,99.65461029525613 105.15543478215113,99.86047037621029 102.25,103.15422575367847 105.77173913037404,108.19776708557038 123.8206521733664,106.85968723706901" stroke="#4dd2ff" stroke-linecap="round" stroke-linejoin="round" stroke-width="0.5"><title>2020-07-24 2.2km</title></polyline><polyline fill="none" points="150.53618421033025,99.79636357311392 147.25,104.26117060129764 150.26973684178665,107.99913297215244 180.11184210469946,105.40332727890927 183.9309210521169,104.46883555036038 187.12828947324306,100.31552822346566 187.12828947324306,97.09670296736294 183.57565789436921,94.70853547821753 177.44736842112616,95.02003591496032 162.7927631577477,100.52319400693523 150.1809210521169,100.41936112084659 147.25,104.46883555036038 150.7138157892041,108.10296505712904 183.22039473662153,104.67650045576738 186.68421052582562,101.97685326158535 187.4835526314564,98.96569956140593 185.44078947324306,95.64303649152862 180.37828947324306,94.39703494292917 167.94407894695178,99.17336563026765 151.15789473662153,100.00402946624672 147.33881578966975,104.46883555036038 150.80263157887384,107.79146876890445 183.13157894695178,104.46883555036038 187.57236842112616,101.76918778545223 187.75,99.48486465122551 186.32894736761227,96.57753661612514 181.62171052582562,94.91620244691148 176.55921052582562,95.2277028177632 166.0789473685436,99.27719864819665 150.4473684206605,100.31552822346566 147.6052631577477,105.50715963856783 151.86842105258256,107.68763665104052 182.86513157840818,104.78033289220184 186.95065789436921,101.8730205289321 187.57236842112616,98.96569956140593 186.68421052582562,96.88903645990649 180.99999999953434,94.81236896803603 164.03618421033025,100.21169531549094 151.42434210516512,100.10786239651497 147.96052631549537,102.08068598306272 147.33881578966975,104.98799773148494 150.0921052629128,107.89530087611638 181.71052631549537,104.67650045576738 186.68421052582562,102.80751472717384 187.57236842112616,98.96569956140593 186.1513157892041,96.26603667327436 181.3552631577477,94.6047019775142 163.32565789436921,99.69253061019117 150.7138157892041,100.10786239651497 147.69407894695178,102.80751472717384 147.51644736807793,104.78033289220184 150.26973684178665,107.79146876890445 175.84868421033025,106.23398584703682 183.9309210521169,104.26117060129764 186.86184210516512,101.04235827329103 186.06249999953434,97.09670296736294 180.20065789436921,94.6047019775142 165.10197368403897,99.27719864819665 151.6019736835733,99.90019652538467 148.4046052629128,101.97685326158535 147.96052631549537,104.15733811003156 150.3585526314564,107.68763665104052 180.55592105258256,105.50715963856783 185.8848684206605,102.91134736081585 187.30592105258256,99.48486465122551 185.97368421033025,96.57753661612514 180.4671052629128,94.6047019775142 176.47039473662153,94.81236896803603 164.92434210469946,99.58869763591792 150.53618421033025,100.10786239651497 147.51644736807793,102.91134736081585 150.4473684206605,107.99913297215244 182.33223684178665,104.78033289220184 186.68421052582562,102.08068598306272 186.95065789436921,98.13503484771354 184.99671052629128,95.85070326295681 180.02302631549537,94.50086846580962 163.6809210521169,99.58869763591792 150.1809210521169,100.21169531549094 147.42763157840818,103.53434293309692 147.96052631549537,105.61099198681768 150.80263157887384,108.10296505712904 158.6184210521169,106.02632127085235 166.70065789436921,106.85697931225877 183.22039473662153,104.67650045576738 187.03947368403897,101.25002390326699 185.3519736835733,96.47370331280399 177.00328947324306,95.02003591496032 172.11842105258256,96.88903645990649" stroke="#4dd2ff" stroke-linecap="round" stroke-linejoin="round" stroke-width="0.5"><title>2020-08-02 8.4km</title></polyline><polyline fill="none" points="14.642778993584216,148.60134713316802 15.351750547066331,149.22298131638672 12.25,151.709514106391 14.554157549515367,155.75011643761536 33.16466083144769,155.75011643761536 47.078227570746094,153.57440955971833 50.00273522967473,152.64196227659704 52.48413566732779,149.01576996577205 52.48413566732779,146.84004813997308 48.40754923410714,143.52465321461204 41.31783369835466,143.93907819356536 33.16466083144769,147.97971255599987 15.174507658928633,149.94822069839574 12.515864332672209,152.95277813612483 15.085886214394122,156.16453624807764 32.89879649877548,156.26814117305912 50.44584245048463,152.02033026184654 52.75,147.56528928497573 49.11652078805491,144.0426844106987 42.82439824938774,143.52465321461204 29.265317286830395,148.80855857138522 17.655908096581697,149.01576996577205 12.958971553947777,150.9842760275933 12.958971553947777,153.88522512384225 16.060722100548446,156.37174608721398 38.39332603942603,155.54290646704612 50.00273522967473,152.84917286090786 51.952407001983374,150.56985402741702 52.39551422279328,146.73644221841823 48.31892779003829,143.83547196537256 41.31783369835466,143.73186572588747 33.962253828998655,147.6688951193355 17.21280087577179,148.91216427384643 13.579321663361043,150.67345954378834 12.870350109878927,153.57440955971833 15.263129102997482,156.78616563463584 39.54540481371805,154.92127629177412 49.64824945293367,152.84917286090786 52.39551422279328,147.25447171751875 49.20514223212376,144.767927625624 39.98851203499362,144.5607153335004 29.708424507640302,148.80855857138522 14.554157549515367,149.43019262322923 12.604485777206719,153.6780147587997 15.61761487973854,156.68256076425314 36.35503282258287,155.54290646704612 49.91411378560588,153.2635938973399 52.66137855593115,150.9842760275933 52.041028446517885,145.59677635715343 43.799234135542065,143.21383436542237 29.619803063571453,147.87610675452743 15.528993435204029,148.49774139781948 12.69310722174123,151.39869785303017 13.047592998016626,154.29964572231984 16.592450765892863,156.37174608721398 24.391137856058776,155.54290646704612" stroke="#4dd2ff" stroke-linecap="round" stroke-linejoin="round" stroke-width="0.5"><title>2020-08-13 5.0km</title></polyline><polyline fill="none" points="59.539130434859544,148.3531435697223 57.690217392053455,152.6761979594594 62.004347825888544,156.5875163471792 67.63913043495268,155.04357675509527 78.38043478270993,156.1757993621286 93.17173913028091,153.39670515886974 96.60543478280306,151.13225216633873 97.13369565177709,146.91212117508985 91.76304347859696,143.51541709317826 88.68152173934504,143.20662522531347 71.77717391308397,148.8677939081099 59.36304347869009,148.8677939081099 57.690217392053455,151.23518196184887 61.388043478596956,156.38165787653998 78.82065217383206,155.8670115088462 95.02065217401832,152.05861993593862 97.75,149.07365396735258 97.13369565177709,146.91212117508985 92.55543478252366,143.61834769387497 75.21086956560612,148.04435323586222 60.68369565252215,148.97072394331917 57.602173913270235,152.1615496336599 60.59565217420459,155.8670115088462 84.89565217401832,154.94064736185828 95.63695652130991,152.26447932067094 97.22173913056031,147.22091186762555 94.1402173913084,144.23593107028864 86.12826086999848,143.61834769387497 75.56304347841069,148.04435323586222 63.325000000186265,148.55900373775512 58.04239130439237,151.3381117467652 57.86630434822291,153.49963471508818 60.68369565252215,156.79337477474473 82.95869565242901,155.45529421925312 91.76304347859696,154.0142823337228 96.5173913044855,151.3381117467652 96.95760869560763,147.11798164743232 93.25978260906413,143.92713943123817 86.12826086999848,143.82420886290492 75.65108695672825,148.04435323586222 62.444565217942,148.66193380532786 58.04239130439237,151.02932235976914 57.514130434952676,154.11721182486508 60.50760869588703,156.5875163471792 82.34239130467176,155.45529421925312 94.8445652173832,153.08791642455617 97.57391304383054,147.529702462547 93.52391304355115,144.13300053484272 88.50543478270993,143.51541709317826 76.26739130495116,147.9414231030387 60.0673913047649,149.38244397449307 57.25,152.26447932067094 60.0673913047649,156.5875163471792 82.16630434803665,155.45529421925312 95.98913043504581,152.1615496336599 97.22173913056031,147.529702462547 92.4673913042061,143.82420886290492 88.24130434822291,143.41248648159672 73.8902173913084,148.3531435697223 59.18695652205497,150.10295361088356 57.33804347878322,152.57326831604587 59.97934782598168,156.79337477474473 76.88369565224275,155.35236486932263" stroke="#4dd2ff" stroke-linecap="round" stroke-linejoin="round" stroke-width="0.5"><title>2020-08-15 6.1km</title></polyline><polyline fill="none" points="104.83131868112832,149.11550486373017 102.3390109888278,152.34139286790742 105.81043956056237,156.60787367186276 137.05329670291394,154.21448427799623 140.9697802197188,152.13327138032764 142.6609890111722,148.38707707740832 141.14780219784006,145.47336054203333 135.80714285746217,143.18400578619912 131.6236263732426,143.18400578619912 115.24560439540073,148.9073826940148 105.09835164854303,148.38707707740832 102.3390109888278,151.5089066529763 105.63241758244112,156.39975308603607 130.9115384616889,155.04696820536628 139.27857142873108,153.3819996471284 142.6609890111722,150.15611505211564 142.75,147.13834247540217 136.87527472525835,143.49619083933067 131.6236263732426,143.70431415288476 118.71703296713531,147.97083238593768 105.72142857173458,148.69926048023626 102.78406593436375,152.44545359537005 107.67967032967135,156.81599421380088 123.96868131868541,155.9835117823095 137.05329670291394,153.69418146606768 141.5928571424447,150.98860241111834 141.9489010986872,146.93021988746477 133.40384615398943,143.49619083933067 117.55989010958001,148.49113822256913 105.63241758244112,148.80332159239333 102.78406593436375,150.67641973413993 103.05109890084714,153.7982420505723 105.81043956056237,156.81599421380088 138.92252747248858,153.4860602641711 142.12692307680845,150.67641973413993 142.03791208798066,147.6586487517343 138.92252747248858,144.8489915910177 132.86978022009134,143.28806748153875 117.11483516497537,148.38707707740832 106.16648351633921,148.38707707740832 102.87307692319155,150.67641973413993 102.5170329674147,152.75763571169227 105.98846153868362,156.29569277638802 122.18846153840423,155.9835117823095 138.744505494833,153.17387837910792 142.3939560437575,150.57235881959787 142.2159340661019,147.4505262739258 139.10054945060983,144.12056064786157 133.67087912093848,143.49619083933067 117.29285714309663,148.9073826940148 104.38626373605803,148.80332159239333 102.25,151.71702827268746 104.74230769276619,155.9835117823095 115.69065934093669,155.46320990519598" stroke="#4dd2ff" stroke-linecap="round" stroke-linejoin="round" stroke-width="0.5"><title>2020-08-18 5.0km</title></polyline><polyline fill="none" points="149.715217391029,148.4046090602642 147.42608695616946,153.03645182593027 152.35652173869312,156.4331225187634 183.52391304355115,153.75695872021606 186.78152173897251,151.3895769219962 187.48586956551298,148.4046090602642 185.72499999962747,145.6254928262788 177.88913043448702,143.46395249443594 161.68913043430075,148.91925934463507 150.77173913037404,148.91925934463507 148.0423913039267,150.56613842590014 147.25,153.4481701165205 152.00434782542288,156.74191017623525 182.81956521747634,153.9628177351551 187.13369565224275,151.28664714819752 187.75,148.4046090602642 185.10869565233588,145.31670164421666 177.27282608672976,143.46395249443594 162.305434782058,148.507539139071 150.77173913037404,148.61046920664376 147.6021739123389,152.41887406335445 151.6521739126183,156.6389809679822 181.23478260822594,154.16867670643842 186.16521739121526,152.6247333608335 187.75,149.12511938181706 185.8130434784107,145.41963204927742 178.94565217383206,143.46395249443594 162.7456521736458,148.91925934463507 151.47608695644885,148.3016789710382 149.62717391271144,148.91925934463507 147.6021739123389,152.7276629934786 150.68369565159082,156.74191017623525 182.4673913042061,153.9628177351551 185.98913043458015,152.1100850350922 187.75,148.19874887081096 187.22173913009465,146.24307489709463 179.56195652112365,143.2580912601552 163.27391304355115,148.81632930942578 151.82826086925343,148.7133992636809 149.715217391029,149.33097937586717 147.42608695616946,152.7276629934786 151.74021739093587,156.84483937348705 178.8576086955145,154.68332394445315 184.75652173906565,153.55109966214513 187.48586956551298,150.46320856478997 186.78152173897251,146.44893550040433 180.00217391271144,143.15516062657116 166.09130434785038,147.78702836023876 151.21195652149618,148.91925934463507 148.0423913039267,152.83059261506423 150.33152173878625,155.8155469102785 166.88369565224275,156.12433476361912 184.22826086962596,153.1393814146286 187.39782608719543,150.2573488104972 186.60543478280306,146.44893550040433 182.2032608697191,143.97860538953682 177.27282608672976,143.46395249443594 163.9782608691603,148.4046090602642 150.77173913037404,149.22804938443005 147.69021739112213,152.93352222593967 152.35652173869312,156.5360517486697 180.7065217392519,154.58039451832883 186.34130434785038,152.00715533737093 187.48586956551298,148.3016789710382 185.02065217401832,145.0079103638418 180.09021739149466,143.56688309513265 163.00978260859847,148.4046090602642 152.70869565196335,148.61046920664376" stroke="#4dd2ff" stroke-linecap="round" stroke-linejoin="round" stroke-width="0.5"><title>2020-08-19 6.8km</title></polyline><polyline fill="none" points="12.25,195.66432089242153 14.586538461502641,197.78890418162337 13.46153846103698,202.84741684253095 16.31730769202113,205.27549342403654 35.615384615492076,204.4661352476105 50.58653846150264,201.43103599204915 52.490384615492076,197.08071027585538 51.365384615492076,194.34910030232277 48.76923076901585,192.83153583761305 43.57692307699472,192.52802265575156 34.8365384619683,196.37251584621845 18.48076923051849,197.58656311949017 14.759615384507924,199.50880148587748 13.807692307513207,202.54390683659585 16.403846153523773,205.47783286095364 46.0,202.54390683659585 49.80769230797887,201.53220612247242 52.66346153849736,198.90177926112665 52.05769230797887,195.56315014214488 49.80769230797887,192.83153583761305 43.83653846150264,192.32568048109533 28.778846153523773,197.58656311949017 16.31730769202113,197.68773365591187 12.855769230984151,201.3298658512067 16.14423076901585,205.27549342403654 46.346153846010566,202.64507684932323 50.240384615492076,201.53220612247242 52.31730769248679,199.3064607869601 52.75,197.28305144538172 49.028846153989434,192.83153583761305 43.23076923051849,192.02216713904636 34.23076923051849,196.37251584621845 19.432692307513207,197.68773365591187 14.153846153523773,200.21699359553168 13.634615384973586,202.13922667939914 17.182692307513207,205.3766631478211 39.509615384507924,203.75794628204312 51.365384615492076,200.72284478100482 52.40384615352377,196.87836906401208 51.62499999953434,193.74207480502082 49.98076923051849,192.9327068767161 45.65384615352377,192.22450937784743 31.375,196.97953967534704 16.490384615026414,197.9912452014396 13.548076923005283,200.82401498616673 16.14423076901585,205.07315394387115 36.221153846010566,204.26379559689667 50.67307692300528,201.43103599204915 52.31730769248679,196.97953967534704 49.115384615026414,192.9327068767161 44.009615384507924,192.32568048109533 30.682692307513207,197.58656311949017 17.44230769202113,197.68773365591187 14.673076923005283,199.4076311418903 13.894230769015849,202.24039673490915 16.83653846150264,205.47783286095364 34.14423076901585,204.3649654275505 50.759615384507924,200.72284478100482 51.884615384507924,195.9678330796305 47.990384615026414,192.83153583761305 41.93269230751321,192.9327068767161 34.490384615492076,196.57485716539668 28.346153846010566,197.68773365591187 16.31730769202113,198.19358617864782 13.894230769015849,200.3181638539536 13.721153846010566,202.54390683659585 16.490384615026414,205.3766631478211 43.83653846150264,203.049756792665 48.85576923098415,201.8357164488989 51.79807692300528,199.4076311418903 51.71153846150264,195.3608086090535 48.68269230751321,193.13504892296623 42.625,193.03387790499255 35.096153846010566,196.57485716539668 18.134615384507924,197.78890418162337 15.278846153989434,199.10412004526006 13.807692307513207,201.63337624212727 15.711538461502641,204.97198418801418 33.451923076529056,203.96028604032472" stroke="#4dd2ff" stroke-linecap="round" stroke-linejoin="round" stroke-width="0.5"><title>2020-08-21 7.1km</title></polyline><polyline fill="none" points="59.78691275184974,197.37301897723228 57.25,200.9744118193048 60.23993288632482,205.52909599716077 81.35067114140838,204.25802342541283 95.75671140989289,201.18625805410556 97.75,198.4322535097599 96.39093959750608,193.66568929736968 89.32382550369948,191.86498136108276 77.90771812107414,196.73747772024944 59.78691275184974,197.90263638354372 57.521812080871314,201.29218115459662 59.96812080591917,205.63501863885904 70.2063758391887,203.19879505067365 73.37751677911729,204.25802342541283 86.4244966446422,203.3047179383575 95.48489932902157,200.86848868534435 97.65939597366378,198.4322535097599 95.93791946349666,193.66568929736968 91.67953020147979,192.28867763729068 87.23993288585916,192.50052570784464 74.8271812084131,197.2670954625355 60.87416107393801,197.05524839938153 57.6124161076732,200.02110320923384 57.340604027267545,202.03364254534245 60.14932885952294,205.2113280054764 70.38758389279246,203.51656368048862 78.72315436275676,204.469868965738 93.31040268484503,201.71587344497675 96.93456375831738,199.17371701617958 96.66275167837739,195.14862281514797 94.57885906053707,192.81829773035133 89.41442953050137,192.07682952168398 76.27684563817456,197.16117193637183 60.058724832721055,198.2204066925333 57.70302013447508,201.08033494226402 60.330536912661046,205.2113280054764 64.0453020138666,204.15210063831182 64.9513422823511,202.4573345220415" stroke="#4dd2ff" stroke-linecap="round" stroke-linejoin="round" stroke-width="0.5"><title>2020-09-19 3.0km</title></polyline><polyline fill="none" points="104.24775784742087,196.30832043971168 102.25,201.1917210322572 104.88340807147324,205.6504573590355 126.22309416998178,204.27037442068104 140.025784753263,201.6163634401164 142.20515695028007,199.59931040467927 142.75,195.67135339492233 137.11995515646413,192.06186584208626 132.12556053791195,192.27418899856275 121.59192825108767,196.4144815749023 102.97645739931613,198.53770191670628 102.61322869965807,201.72252401412698 105.42825112119317,205.11965645343298 108.06165919313207,203.20877086982364 116.05269058281556,203.95189347304404 126.58632286963984,201.93484512798022 136.2118834075518,202.3594872217509 140.84304932691157,200.34243567858357 142.75,196.4144815749023 139.75336322840303,193.12348117498914 133.94170403573662,191.8495426409645" stroke="#4dd2ff" stroke-linecap="round" stroke-linejoin="round" stroke-width="0.5"><title>2020-10-14 1.6km</title></polyline><polyline fill="none" points="150.07019159570336,181.5759731065482 150.72792021464556,207.7215869531501 155.11277767457068,219.0 179.887222324498,213.10447245184332 184.929808402434,208.490571326809 179.4487365782261,180.55064917192794 152.92034894414246,179.0126624556724 150.07019159570336,194.90514480695128 155.9897491671145,217.97469189064577 175.72160773724318,215.15509235486388 184.929808402434,208.2342432292644 178.5717650866136,181.06331119290553 153.13959181774408,180.03798704082146 150.07019159570336,205.1583039436955 154.0165633102879,217.2057105244603 171.11750740371644,216.18040165654384 185.36829414963722,210.2848672522232 178.5717650866136,181.5759731065482 153.57807756401598,178.5 149.63170584943146,203.87666142289527 154.8935348019004,218.74367301282473 182.29889392852783,212.59181720460765 184.929808402434,206.43994578672573 178.3525222139433,179.268993642414 152.70110607147217,179.52532480214722 150.50867734197527,203.10767558473162 155.77050629351288,218.4873459993396 177.47555072046816,214.12978262035176 184.7105655297637,207.7215869531501 179.6679794518277,182.60129660833627 152.92034894414246,181.3196421628818 150.28943446930498,182.85762741579674 149.85094872303307,198.4937554365024 155.9897491671145,218.74367301282473 184.2720797844231,211.05385081353597 183.175865419209,203.36400422477163" stroke="#4dd2ff" stroke-linecap="round" stroke-linejoin="round" stroke-width="0.5"><title>2020-12-21 3.1km</title></polyline><polyline fill="none" points="37.25344984512776,227.25 44.02848180755973,250.75805171276443 37.034900427330285,255.8684372229036 33.86593386344612,250.24701197305694 24.79613301064819,248.2028508533258 21.29934232030064,249.8637320266571 21.080792902503163,255.10188077401835 23.594111211132258,267.1112092739204 37.14417513599619,263.7894920541439 35.505054499488324,250.50253187003545 33.64738444564864,248.58613132697064 22.938462956808507,248.71389145753346 21.19006761116907,252.29116963490378 21.29934232030064,260.97880112181883 24.79613301064819,267.4944837499643 38.01837280858308,263.6617335174233 34.95868095429614,248.45837118232157 24.468308883719146,248.07509066839702 21.95499057509005,248.71389145753346 20.971518192905933,251.26909123640507 21.080792902503163,262.76742338063195 24.468308883719146,267.75 37.58127397252247,263.53397496719845 36.160702754277736,253.1854875246063 34.193757991306484,248.07509066839702 23.047737665474415,248.71389145753346 24.90540771977976,247.81957025860902 21.19006761116907,253.44100680027623 21.40861702989787,261.3620775428135 24.90540771977976,267.6222418815596 37.690548681654036,263.91725057770964 37.690548681654036,259.06241719191894 34.95868095429614,250.50253187003545 28.839297246653587,248.07509066839702 21.517891738563776,249.3526919085998 21.080792902503163,258.2958627692424 24.359034174121916,267.6222418815596 31.898989100474864,266.0891434092773 38.23692222638056,262.1286300206557 35.72360391821712,251.0135715015931 33.75665915478021,249.6082119946368" stroke="#4dd2ff" stroke-linecap="round" stroke-linejoin="round" stroke-width="0.5"><title>2021-01-20 3.0km</title></polyline><polyline fill="none" points="60.38849360309541,240.91273004654795 63.30997030530125,261.4066734504886 67.69218535814434,267.75 89.81193753145635,260.4307755099144 93.77679876983166,255.55127962003462 88.55987608712167,230.90966776618734 64.9793855631724,228.2259119716473 62.26658576913178,249.20791953941807 66.23144700750709,265.798209073022 86.68178392201662,261.8946222651284 94.19415258429945,256.52717962418683 88.55987608712167,232.8614882011898 63.51864721253514,227.98193401726894 62.26658576913178,250.91574896872044 66.44012391474098,266.53013086365536 84.80369175598025,262.62654529488645 93.98547567706555,255.30730455485173 88.97722990252078,231.15364541043527 64.56203174963593,227.98193401726894 61.6405550474301,239.69284672499634 66.02277010027319,265.798209073022 84.38633794151247,262.3825709770899 94.19415258429945,256.28320466168225 88.55987608712167,231.88557818974368 64.14467793423682,227.73795603751205 61.6405550474301,239.44886998273432 66.23144700750709,265.798209073022 80.83883051853627,263.84641649434343 94.61150639783591,257.50307921436615 87.09913773648441,229.68977915518917 65.60541628487408,228.46988990018144 61.84923195466399,242.3765891827643 64.9793855631724,266.2861569589004 94.19415258429945,257.01512947049923 88.14252227265388,232.37353324750438 65.81409319210798,227.25 61.84923195466399,236.27716999081895 65.39673937857151,266.0421830289997 76.87396927922964,264.82231298973784 93.98547567706555,256.77115456038155 86.05575319938362,230.1777346767485 64.35335484240204,228.7138678028714 61.6405550474301,246.03623296041042 65.60541628487408,265.06628704909235 84.80369175598025,261.4066734504886 93.35944495629519,254.33140403660946 87.3078146437183,230.66569009586237 64.56203174963593,229.9337569293566 62.057908861897886,244.32839991990477 66.64880082104355,266.53013086365536 91.48135279025882,259.4548771576956 93.77679876983166,255.30730455485173" stroke="#4dd2ff" stroke-linecap="round" stroke-linejoin="round" stroke-width="0.5"><title>2021-02-07 4.6km</title></polyline><polyline fill="none" points="120.95288616186008,264.83461275730224 120.3522419660585,264.9622948345932 120.26123526971787,265.2814996734669 120.31583928747568,266.9626368045865 120.64346339437179,267.75 122.88222812477034,267.2818384712591 122.93683214252815,266.00502876751125 123.683087052661,265.621984276906 123.91970446310006,264.83461275730224 123.15524821379222,262.0894285044924 123.28265758871567,259.62085875424964 122.99143616028596,255.04541233979398 123.15524821379222,251.57651619634998 123.42826830293052,250.95934435936215 123.100644195918,241.1269032592536 123.46467098139692,240.08404041611357 123.33726160647348,238.9773229160346 123.30085892789066,238.76449192964355 120.24303393031005,238.6367932297435 118.73232277086936,237.6577671714913 118.5867120566545,237.04055264301132 118.18628259282559,237.12568579401704 116.7301754510263,238.93475673670764 118.20448393200058,237.67905039731704 122.91863080335315,229.50612611514225 123.48287232057191,229.14429627188656 124.3201339271618,230.16593180119526 124.22912723070476,229.33585332873918 125.08459017658606,228.39935042771685 127.90579776361119,227.61183325022284 128.2698245489737,227.25 126.777314728708,227.4841274714854 125.21199955139309,228.3567820104363 124.52034865913447,228.3567820104363 122.33618794661015,230.08079570520204 121.2623089295812,231.48553668166278 118.04067187861074,237.38108503079275 120.55245669791475,239.04117216802842 122.22697991097812,239.06245524750557 122.90042946394533,239.53068242697918 123.20985223155003,244.29802441305947 122.62740937492345,247.72448170225834 122.99143616028596,249.78884084893798 122.79122142831329,251.7254884251597" stroke="#4dd2ff" stroke-linecap="round" stroke-linejoin="round" stroke-width="0.5"><title>2021-02-13 5.0km</title></polyline></svg>